<svg xmlns="http://www.w3.org/2000/svg" version="1.1" xmlns:xlink="http://www.w3.org/1999/xlink" xmlns:svgjs="http://svgjs.com/svgjs" width="1440" height="560" preserveAspectRatio="none" viewBox="0 0 1440 560"><g mask="url(&quot;#SvgjsMask1000&quot;)" fill="none"><rect width="1440" height="560" x="0" y="0" fill="#0e2a47"></rect><path d="M347.51 115.97a19.29 19.29 0 1 0 38.04-6.38z" stroke="#d3b714"></path><path d="M615.77 435.15L621.63 435.15L621.63 441.01L615.77 441.01z" fill="#d3b714"></path><path d="M1273 173.27a19.54 19.54 0 1 0-11.1-37.47z" stroke="#d3b714"></path><path d="M735.18 214.2 a52.74 52.74 0 1 0 105.48 0 a52.74 52.74 0 1 0 -105.48 0z" fill="#037b0b"></path><path d="M733.9 50.75L784.39 50.75L784.39 101.24L733.9 101.24z" stroke="#d3b714"></path><path d="M1227.87 89.85L1254.43 89.85L1254.43 124.07L1227.87 124.07z" stroke="#e73635"></path><path d="M1374.01 226.8L1407.73 226.8L1407.73 260.52L1374.01 260.52z" stroke="#d3b714"></path><path d="M743.4 309.18L791.38 309.18L791.38 357.16L743.4 357.16z" fill="#037b0b"></path><path d="M759.9 389.6 a20.74 20.74 0 1 0 41.48 0 a20.74 20.74 0 1 0 -41.48 0z" fill="#e73635"></path><path d="M28.61 434.17 a45.26 45.26 0 1 0 90.52 0 a45.26 45.26 0 1 0 -90.52 0z" fill="#e73635"></path><path d="M559.04 391.44a35.57 35.57 0 1 0-64.46 30.1z" fill="#e73635"></path><path d="M871.83 135.41a11.08 11.08 0 1 0-21.65-4.73z" fill="#d3b714"></path><path d="M387.77 418.56L442.94 418.56L442.94 458.58L387.77 458.58z" fill="#e73635"></path><path d="M237.32 440.47L266.39 440.47L266.39 449.88L237.32 449.88z" stroke="#037b0b"></path><path d="M893.82 490.21L920.82 490.21L920.82 517.21L893.82 517.21z" fill="#d3b714"></path><path d="M233.8 376.27a41.85 41.85 0 1 0-11.49-82.91z" stroke="#d3b714"></path><path d="M775.78 558.47 a6.42 6.42 0 1 0 12.84 0 a6.42 6.42 0 1 0 -12.84 0z" stroke="#d3b714"></path><path d="M413.5 85.71L447.93 85.71L447.93 120.14L413.5 120.14z" stroke="#037b0b"></path><path d="M533.46 365.11L548.92 365.11L548.92 390.88L533.46 390.88z" fill="#037b0b"></path><path d="M260.66 444.22a55.08 55.08 0 1 0-101.85-41.99z" fill="#d3b714"></path><path d="M512.8 88.65 a22.23 22.23 0 1 0 44.46 0 a22.23 22.23 0 1 0 -44.46 0z" fill="#e73635"></path><path d="M1125.05 384.77L1166.89 384.77L1166.89 423.27L1125.05 423.27z" fill="#037b0b"></path><path d="M290.3 415.44 a42.39 42.39 0 1 0 84.78 0 a42.39 42.39 0 1 0 -84.78 0z" fill="#d3b714"></path><path d="M123.27 174.63 a17.31 17.31 0 1 0 34.62 0 a17.31 17.31 0 1 0 -34.62 0z" fill="#037b0b"></path><path d="M181.37 432.65L224.57 432.65L224.57 475.85L181.37 475.85z" stroke="#e73635"></path><path d="M1101.91 160.55a24.51 24.51 0 1 0-48.52 6.99z" stroke="#e73635"></path><path d="M74.42 128.84L88.14 128.84L88.14 169.95L74.42 169.95z" stroke="#d3b714"></path><path d="M473.29 192.69L477 192.69L477 239.5L473.29 239.5z" stroke="#e73635"></path><path d="M588.95 449.64L611.28 449.64L611.28 471.97L588.95 471.97z" fill="#e73635"></path><path d="M386.15 335.84 a8.6 8.6 0 1 0 17.2 0 a8.6 8.6 0 1 0 -17.2 0z" fill="#e73635"></path><path d="M1400.93 228.12L1433.22 228.12L1433.22 260.41L1400.93 260.41z" stroke="#d3b714"></path><path d="M659.2 25.46L715.19 25.46L715.19 43.43L659.2 43.43z" stroke="#037b0b"></path><path d="M553.15 98.94 a37.36 37.36 0 1 0 74.72 0 a37.36 37.36 0 1 0 -74.72 0z" stroke="#d3b714"></path></g><defs><mask id="SvgjsMask1000"><rect width="1440" height="560" fill="#ffffff"></rect></mask></defs></svg>