<?xml version="1.0" standalone="no"?>
<!DOCTYPE svg PUBLIC "-//W3C//DTD SVG 20010904//EN"
 "http://www.w3.org/TR/2001/REC-SVG-20010904/DTD/svg10.dtd">
<svg version="1.0" xmlns="http://www.w3.org/2000/svg"
 width="462.000000pt" height="500.000000pt" viewBox="0 0 462.000000 500.000000"
 preserveAspectRatio="xMidYMid meet">

<g transform="translate(0.000000,500.000000) scale(0.100000,-0.100000)"
fill="#000000" stroke="none">
<path d="M2296 4984 c-298 -31 -482 -105 -682 -275 -258 -219 -464 -520 -565
-823 -36 -109 -38 -112 -243 -341 -64 -71 -124 -146 -133 -165 -26 -52 -28
-182 -8 -579 10 -190 18 -416 19 -501 2 -215 -1 -221 -158 -292 -58 -27 -63
-37 -38 -68 19 -24 20 -24 64 -7 71 28 177 47 258 47 74 0 78 -1 265 -91 523
-249 625 -302 632 -327 8 -32 -2 -39 -190 -136 -155 -81 -217 -119 -217 -137
0 -5 13 0 28 11 16 12 74 37 130 55 121 41 228 93 299 146 78 58 92 62 160 37
123 -46 286 -21 420 64 133 84 283 57 283 -52 0 -45 26 -80 60 -80 36 0 87
-27 93 -49 7 -28 -11 -40 -84 -57 -35 -8 -121 -42 -192 -76 -112 -53 -141 -62
-216 -70 -109 -12 -145 -30 -179 -87 -14 -26 -63 -102 -107 -171 -208 -319
-273 -462 -404 -880 l-18 -55 -121 -3 c-67 -1 -122 -1 -122 2 0 2 38 113 84
247 208 600 242 682 323 777 53 62 77 76 161 92 46 9 68 19 82 38 11 13 20 29
20 33 0 5 -72 9 -160 9 l-160 0 0 64 0 64 -37 -11 c-25 -7 -59 -33 -100 -75
l-62 -64 -343 -8 c-189 -5 -358 -13 -376 -19 -78 -24 -138 -87 -157 -163 -6
-25 -4 -28 18 -28 14 0 47 11 73 25 80 43 134 29 134 -34 0 -29 -24 -39 -155
-61 -133 -23 -168 -38 -250 -111 -195 -175 -309 -365 -391 -656 -19 -67 -34
-124 -34 -127 0 -3 165 -6 368 -6 l367 1 29 67 c58 131 339 667 365 695 39 43
58 50 148 57 71 6 90 12 142 43 119 74 156 57 121 -55 -11 -35 -83 -229 -159
-433 -77 -203 -139 -370 -138 -372 2 -1 759 -5 1683 -9 l1681 -7 6 24 c9 33 8
1012 -1 1025 -4 6 -28 25 -54 42 -25 17 -95 83 -154 147 -117 125 -187 181
-291 235 -64 33 -68 37 -71 72 -4 46 9 53 103 61 39 4 93 14 120 23 69 24 155
80 155 102 0 10 -16 51 -36 92 -115 238 -286 609 -354 765 -96 223 -226 573
-240 644 -5 29 -17 186 -25 349 -37 733 -37 729 -96 860 -130 288 -465 487
-922 547 -139 18 -274 18 -451 -1z m280 -69 c241 -39 341 -106 405 -273 23
-61 37 -229 25 -296 l-7 -35 -82 35 c-147 63 -294 82 -497 65 -155 -13 -217
-37 -292 -112 -44 -44 -58 -64 -58 -87 0 -33 22 -57 61 -67 21 -5 32 0 60 29
26 28 41 36 69 36 46 0 131 -40 158 -75 27 -34 31 -115 7 -135 -20 -17 -109
-8 -205 20 -53 16 -113 23 -205 27 -133 5 -132 5 -370 -48 -44 -10 -57 -9
-105 10 -30 11 -68 32 -85 45 l-29 24 18 57 c45 144 161 329 290 463 262 272
521 369 842 317z m-586 -29 c0 -2 -46 -39 -102 -83 -196 -153 -345 -301 -405
-403 -21 -36 -30 -38 -35 -7 -3 19 -7 15 -31 -25 -55 -92 -170 -408 -154 -424
2 -3 24 1 49 7 92 25 97 -2 38 -201 -22 -74 -40 -138 -40 -142 0 -19 59 16 68
40 64 172 80 201 147 260 79 69 216 106 440 119 179 10 286 -25 491 -158 122
-79 221 -131 351 -185 48 -20 92 -40 97 -45 6 -5 5 -37 -2 -83 -23 -148 -82
-256 -134 -243 -32 9 -47 43 -63 151 -12 73 -19 94 -41 117 -32 33 -83 39
-105 12 -30 -35 -18 -180 40 -469 37 -185 52 -280 47 -300 l-8 -29 -26 32
c-15 17 -43 54 -62 82 -19 28 -38 51 -42 51 -16 0 -7 -32 46 -162 66 -165 96
-259 130 -413 51 -229 55 -235 161 -270 68 -22 70 -23 73 -59 2 -20 -1 -36 -6
-36 -9 0 -173 47 -248 71 -39 12 -41 16 -104 259 -84 321 -182 588 -306 831
-74 145 -125 221 -198 297 -94 98 -168 135 -308 153 -159 20 -337 -21 -586
-135 -168 -77 -188 -81 -278 -61 -56 12 -74 20 -74 33 0 9 35 61 78 115 138
177 156 206 194 323 48 147 103 261 188 386 150 223 412 471 594 563 57 29
126 46 126 31z m-188 -1453 c13 -11 18 -30 18 -65 0 -42 3 -48 20 -48 15 0 22
-9 27 -30 l6 -31 18 31 c19 31 26 34 53 24 21 -8 20 -30 -4 -69 -22 -36 -62
-54 -119 -56 -28 -1 -17 -6 49 -22 74 -19 87 -26 98 -50 14 -29 14 -29 83 -22
67 7 69 7 81 -20 8 -18 9 -32 2 -42 -5 -8 -64 -34 -130 -58 -66 -23 -160 -60
-210 -81 -131 -57 -176 -55 -319 14 l-109 53 -85 -84 c-47 -46 -103 -99 -123
-117 -34 -30 -47 -58 -33 -72 3 -3 31 8 61 24 31 15 71 28 89 28 96 0 266
-112 377 -249 l36 -45 63 28 c285 125 364 156 413 162 57 7 72 -2 61 -35 -8
-25 -104 -74 -392 -201 -139 -61 -233 -108 -233 -116 0 -32 35 -32 185 2 83
19 174 37 203 40 l52 7 0 -36 c0 -40 22 -32 -190 -72 -140 -26 -339 -86 -515
-154 -44 -17 -82 -31 -86 -31 -4 0 -10 19 -13 43 l-7 42 -42 -47 -42 -47 -228
-12 c-166 -9 -231 -9 -239 -1 -28 28 36 117 79 109 19 -4 23 0 23 23 0 36 24
57 45 40 8 -7 15 -18 15 -26 0 -19 16 -25 45 -18 21 5 25 12 25 44 0 24 7 43
19 54 18 16 20 16 35 -6 9 -12 16 -30 16 -38 0 -9 6 -25 14 -35 24 -33 42 -4
50 77 8 87 25 111 56 83 16 -15 20 -30 20 -82 0 -60 1 -63 24 -63 22 0 24 5
32 68 8 57 12 67 29 67 16 0 24 -13 39 -57 17 -53 21 -58 47 -58 17 0 29 5 29
13 0 26 -79 168 -194 347 -127 199 -144 222 -157 215 -4 -3 -26 -39 -49 -80
-45 -82 -57 -94 -72 -74 -11 17 -3 154 11 191 6 15 61 69 123 121 62 52 123
105 135 118 37 40 71 130 84 219 10 69 17 89 39 112 50 49 122 48 147 -2 8
-16 13 -72 13 -161 0 -149 0 -149 61 -149 29 0 153 58 214 99 17 12 41 21 55
21 l24 0 -22 16 c-22 15 -23 20 -17 108 10 124 38 164 87 119z m1085 -1835
c34 -34 66 -73 71 -87 13 -38 -3 -70 -44 -87 -40 -17 -30 -22 -133 60 -56 45
-61 52 -61 88 0 30 7 46 29 68 39 40 62 33 138 -42z m-287 -743 c35 -18 62
-65 63 -112 1 -25 -44 -122 -174 -378 l-174 -345 -193 0 -194 0 56 50 c75 69
123 137 346 485 106 165 197 303 203 307 18 11 35 10 67 -7z m-534 -110 c7
-16 14 7 -109 -375 -52 -162 -98 -307 -101 -322 -6 -27 -8 -28 -76 -28 -39 0
-70 3 -70 7 0 11 129 361 176 475 44 109 98 223 116 246 14 17 57 15 64 -3z
m799 -108 c78 -102 138 -226 193 -398 27 -85 53 -170 57 -188 l7 -32 -46 3
-46 3 -71 175 c-38 97 -105 238 -149 317 -44 78 -80 145 -80 149 0 4 8 16 17
26 30 34 62 19 118 -55z"/>
<path d="M1252 3823 c-5 -10 -15 -36 -22 -58 -7 -22 -35 -85 -62 -140 -30 -62
-44 -101 -37 -104 19 -6 45 30 103 146 43 85 55 118 50 138 -8 33 -21 40 -32
18z"/>
<path d="M1017 13 c18 -2 50 -2 70 0 21 2 7 4 -32 4 -38 0 -55 -2 -38 -4z"/>
</g>
</svg>
