<?xml version="1.0" standalone="no"?>
<!DOCTYPE svg PUBLIC "-//W3C//DTD SVG 20010904//EN"
 "http://www.w3.org/TR/2001/REC-SVG-20010904/DTD/svg10.dtd">
<svg version="1.0" xmlns="http://www.w3.org/2000/svg"
 width="570.000000pt" height="570.000000pt" viewBox="0 0 570.000000 570.000000"
 preserveAspectRatio="xMidYMid meet">

<g transform="translate(0.000000,570.000000) scale(0.100000,-0.100000)"
fill="#000000" stroke="none">
<path d="M3034 4136 c-18 -8 -36 -22 -41 -31 -9 -15 -13 -14 -48 9 -55 38
-126 36 -187 -4 -51 -34 -84 -73 -118 -140 -13 -25 -37 -62 -55 -83 -18 -21
-47 -68 -64 -105 -53 -113 -91 -183 -152 -278 -33 -50 -59 -94 -59 -98 0 -3
17 3 39 13 24 13 63 52 106 106 61 79 85 95 85 60 0 -34 -28 -69 -96 -120
-116 -87 -365 -331 -453 -443 -14 -19 -48 -45 -76 -59 -68 -34 -314 -183 -321
-194 -3 -5 8 -9 23 -9 17 0 75 27 142 66 62 36 115 64 117 62 5 -5 -218 -301
-299 -396 -75 -89 -169 -179 -257 -246 -66 -51 -186 -119 -461 -259 -236 -120
-346 -186 -442 -264 -70 -58 -157 -148 -157 -164 0 -5 1079 -9 2590 -9 1580 0
2590 4 2590 9 0 16 -305 301 -450 422 -237 197 -387 300 -679 468 -106 61
-217 129 -247 152 -81 62 -187 179 -233 256 -43 73 -145 293 -138 299 2 2 32
-19 67 -47 120 -96 314 -218 327 -205 12 11 -69 86 -212 194 -174 132 -221
176 -247 225 -10 21 -18 41 -16 43 3 2 33 -23 69 -57 35 -33 100 -84 144 -115
44 -30 112 -79 150 -110 43 -34 139 -89 250 -145 99 -49 209 -105 245 -124 64
-34 100 -43 100 -26 0 13 -103 78 -235 149 -66 35 -197 115 -291 178 -153 102
-184 127 -286 237 -156 167 -159 172 -146 228 6 24 14 48 18 52 4 5 39 -32 76
-81 61 -80 111 -122 144 -122 5 0 -18 42 -51 93 -33 50 -80 133 -104 182 -38
76 -45 102 -50 170 -7 101 -33 149 -94 182 -53 28 -137 31 -184 7 -22 -12 -32
-13 -35 -5 -2 6 -15 25 -28 40 -19 23 -38 31 -87 40 -84 14 -145 13 -183 -3z
m194 -69 c16 -13 26 -37 36 -83 l7 -32 -63 -4 c-35 -3 -76 -11 -93 -18 -30
-13 -29 -14 39 -21 38 -4 73 -12 79 -18 7 -7 5 -39 -6 -104 -18 -97 -21 -238
-7 -272 7 -19 8 -18 14 5 3 14 10 61 16 105 20 146 52 289 73 327 27 50 75 72
140 65 57 -5 80 -25 96 -85 12 -42 10 -47 -17 -33 -29 15 -102 13 -132 -4
l-25 -14 34 -1 c78 0 151 -61 151 -125 0 -116 -136 -508 -192 -552 -7 -5 -44
-18 -81 -28 -66 -18 -70 -18 -100 0 -24 14 -32 15 -35 5 -3 -7 -13 -21 -23
-31 -16 -16 -34 -19 -110 -19 l-90 0 -10 30 c-12 34 -15 35 -49 15 -16 -9 -55
-14 -108 -15 -81 0 -83 1 -93 28 -22 56 -48 212 -60 364 -11 139 -11 165 3
232 23 102 62 180 123 243 44 46 56 53 89 53 49 0 91 -43 101 -101 7 -43 -2
-58 -35 -59 -8 0 -26 -9 -40 -20 l-25 -20 30 0 c57 -1 58 -4 48 -151 -12 -159
3 -349 27 -349 4 0 10 84 13 188 8 274 42 464 90 506 19 16 32 17 97 12 41 -4
81 -12 88 -19z m-649 -603 c6 -14 23 -82 36 -152 40 -201 32 -192 152 -185 48
3 96 10 105 14 12 7 24 2 43 -17 24 -24 30 -25 87 -19 43 5 59 4 54 -4 -4 -6
-14 -11 -23 -11 -31 0 -341 -73 -533 -126 -152 -41 -504 -152 -610 -191 -8 -3
17 28 56 68 40 41 118 136 174 212 119 163 161 210 238 268 31 24 87 72 125
106 37 35 71 63 76 63 4 0 13 -12 20 -26z m883 -534 c58 -191 100 -326 127
-402 35 -100 38 -146 13 -202 l-18 -40 -13 33 c-11 24 -11 38 -2 57 19 42 13
71 -43 213 -29 75 -56 143 -59 151 -2 8 -4 -42 -3 -111 1 -123 0 -126 -27
-162 -41 -54 -54 -59 -144 -46 -114 15 -219 44 -351 95 -188 74 -240 88 -317
88 -73 -1 -136 -22 -197 -65 -16 -12 -73 -76 -126 -143 -115 -145 -202 -238
-299 -317 -78 -64 -95 -69 -159 -40 -50 23 -80 61 -128 165 -20 43 -39 77 -41
74 -3 -3 3 -47 14 -99 10 -52 22 -116 25 -144 11 -79 25 -113 57 -136 21 -14
29 -29 29 -50 0 -35 -6 -36 -41 -6 -45 38 -58 70 -88 218 -16 79 -41 193 -55
253 -30 123 -31 116 45 198 35 37 66 56 151 93 421 180 1011 330 1488 379 19
2 60 3 90 2 l55 -1 17 -55z m120 43 c67 -76 163 -395 140 -463 -9 -28 -35 -50
-57 -50 -20 0 -28 14 -60 103 -20 56 -54 163 -76 237 -22 74 -42 142 -44 151
-11 33 71 51 97 22z m-719 -452 c244 -95 341 -119 558 -136 90 -8 111 -23 130
-97 12 -43 11 -55 -10 -125 -13 -43 -31 -106 -39 -140 -12 -46 -20 -63 -33
-63 -33 0 -205 48 -254 71 -28 13 -101 54 -164 92 -207 124 -287 159 -368 158
-108 -1 -154 -45 -284 -271 -108 -189 -167 -277 -233 -345 -56 -57 -88 -75
-118 -67 -9 2 -62 50 -117 107 -156 160 -153 193 34 326 124 88 169 133 298
294 233 292 299 313 600 196z m968 -55 c144 -44 205 -127 197 -265 -5 -91 -23
-112 -24 -28 0 110 -35 147 -179 192 -44 14 -98 33 -120 43 l-39 18 44 26 c54
31 61 32 121 14z m-146 -78 c16 -7 25 -19 25 -34 0 -26 -57 -227 -92 -324 -22
-63 -24 -65 -61 -68 -44 -4 -44 -3 -18 101 19 72 111 337 117 337 2 0 15 -5
29 -12z m-2106 -35 c32 -117 46 -181 67 -293 21 -116 22 -126 7 -137 -9 -7
-29 -13 -45 -13 -23 0 -32 8 -52 48 -36 71 -64 159 -80 254 l-15 83 47 48 c25
26 50 47 54 47 4 0 12 -17 17 -37z m2364 -73 l40 -41 -6 -92 c-4 -63 -15 -120
-35 -182 -28 -84 -79 -205 -87 -205 -3 0 -71 91 -88 117 -5 8 7 60 28 124 20
62 45 151 56 198 34 145 31 142 92 81z m-1090 -151 c34 -11 114 -45 178 -75
187 -86 355 -124 549 -124 105 0 155 -28 211 -120 37 -60 86 -197 74 -208 -3
-3 -186 -6 -407 -6 l-401 1 -34 42 c-50 60 -108 91 -171 91 -74 0 -123 -24
-181 -87 l-51 -56 -62 7 c-33 3 -139 6 -235 6 l-174 0 78 78 c80 79 138 150
211 258 60 89 136 169 185 193 56 28 147 28 230 0z m-1210 -270 c-10 -17 -48
-64 -86 -106 -39 -45 -72 -92 -79 -114 -9 -31 -16 -39 -35 -39 -21 0 -23 4
-23 57 0 67 22 117 81 186 40 46 41 47 100 47 l60 0 -18 -31z m149 -71 c51
-42 118 -102 148 -132 l54 -56 -63 0 -64 0 -110 108 -110 109 18 27 c10 15 21
25 26 24 4 -2 50 -38 101 -80z m1132 -93 c18 -9 50 -34 71 -55 l39 -40 -34 0
c-19 0 -44 7 -54 15 -25 19 -56 19 -82 1 -24 -17 -186 -25 -191 -9 -6 16 36
62 75 83 45 24 131 26 176 5z m-1346 -54 l31 -39 -49 -4 c-66 -4 -70 -2 -60
32 18 63 34 65 78 11z"/>
<path d="M3135 2884 c-82 -19 -225 -47 -318 -63 -170 -29 -217 -47 -217 -80 0
-35 50 -61 145 -75 22 -4 144 -36 272 -73 212 -60 235 -65 263 -53 43 18 60
58 73 170 9 79 8 107 -4 151 -18 68 -19 68 -214 23z"/>
<path d="M2225 2665 c-66 -25 -185 -65 -265 -90 -253 -80 -245 -77 -248 -107
-5 -42 64 -164 129 -230 92 -93 80 -100 356 177 205 205 234 239 231 263 -5
43 -59 40 -203 -13z"/>
<path d="M3930 3368 c0 -22 124 -160 191 -214 153 -123 437 -292 624 -370 60
-26 137 -60 170 -77 59 -29 165 -69 165 -62 0 7 -146 93 -265 155 -66 35 -167
93 -225 128 -58 36 -152 94 -209 129 -135 83 -143 89 -299 215 -74 59 -138
108 -143 108 -5 0 -9 -6 -9 -12z"/>
<path d="M2163 3313 c-33 -27 -89 -72 -123 -101 -147 -125 -491 -335 -829
-508 -114 -58 -152 -84 -123 -84 14 0 371 154 449 194 116 58 338 191 425 253
85 61 278 255 278 279 0 23 -14 17 -77 -33z"/>
</g>
</svg>
