<?xml version="1.0" standalone="no"?>
<!DOCTYPE svg PUBLIC "-//W3C//DTD SVG 20010904//EN"
 "http://www.w3.org/TR/2001/REC-SVG-20010904/DTD/svg10.dtd">
<svg version="1.0" xmlns="http://www.w3.org/2000/svg"
 width="642.000000pt" height="845.000000pt" viewBox="0 0 642.000000 845.000000"
 preserveAspectRatio="xMidYMid meet">

<g transform="translate(0.000000,845.000000) scale(0.100000,-0.100000)"
fill="#000000" stroke="none">
<path d="M3910 8379 c-150 -13 -205 -61 -236 -210 -35 -163 18 -314 101 -293
44 11 115 90 159 174 52 100 90 156 143 211 89 93 28 135 -167 118z"/>
<path d="M4147 8199 c-76 -21 -142 -115 -171 -247 -23 -103 -43 -147 -82 -182
-43 -37 -69 -44 -150 -37 -98 7 -105 17 -129 185 -39 262 -55 289 -160 278
-83 -8 -162 -36 -312 -111 -258 -127 -437 -304 -551 -542 -43 -92 -55 -178
-26 -187 55 -17 493 -37 1199 -56 220 -6 589 -17 820 -25 482 -16 521 -13 545
45 36 88 -127 373 -312 544 -130 121 -309 228 -507 302 -89 34 -131 42 -164
33z"/>
<path d="M3210 7180 c-170 -13 -318 -37 -465 -75 -158 -40 -244 -74 -307 -120
-38 -28 -50 -44 -63 -87 -19 -65 -19 -160 -1 -197 15 -27 25 -35 163 -125 131
-85 360 -349 423 -488 35 -77 22 -156 -48 -295 -51 -100 -56 -94 -48 59 8 157
-5 234 -55 329 -30 55 -145 179 -167 179 -15 0 -20 -21 -32 -130 -21 -179 -42
-236 -135 -365 -180 -251 -192 -492 -38 -747 107 -177 181 -229 359 -249 102
-11 124 -11 634 17 311 17 594 15 795 -7 65 -7 164 -9 240 -5 307 14 524 102
695 282 95 101 133 179 138 288 5 100 -7 163 -73 366 -59 183 -72 245 -85 394
-11 146 -32 180 -95 156 -41 -15 -168 -143 -215 -216 -81 -123 -100 -210 -81
-373 7 -55 9 -106 6 -112 -12 -19 -40 18 -86 114 -40 84 -44 99 -44 167 0 65
5 84 33 137 61 118 305 384 399 436 36 19 71 28 124 33 41 3 84 13 96 20 64
40 54 255 -17 359 -16 23 -51 56 -77 73 -108 69 -392 125 -853 168 -204 18
-938 28 -1120 14z m1325 -160 c44 -6 103 -21 130 -34 62 -29 140 -107 161
-162 14 -38 14 -47 0 -104 -34 -132 -122 -259 -170 -244 -71 22 -174 85 -385
233 -79 56 -168 115 -197 132 -51 29 -54 29 -83 15 -35 -18 -82 -108 -106
-201 -15 -60 -38 -231 -49 -375 l-6 -75 57 -48 c262 -218 543 -461 547 -474
15 -38 -117 9 -429 154 -195 91 -255 113 -330 120 -91 8 -148 -10 -297 -94
-192 -110 -278 -144 -278 -113 0 18 63 82 204 204 203 177 281 262 300 327 20
66 20 113 1 225 -29 169 -86 334 -118 347 -20 7 -141 -51 -308 -148 -136 -80
-297 -161 -339 -170 -41 -9 -88 28 -118 93 -36 75 -38 195 -6 257 40 77 178
124 425 144 155 13 1291 6 1394 -9z m-776 -1695 c51 -18 97 -49 112 -76 8 -16
5 -29 -15 -64 -59 -100 -222 -245 -275 -245 -16 0 -46 13 -68 29 -80 58 -193
206 -193 252 0 46 85 101 183 119 67 12 203 4 256 -15z m-859 -5 c81 -81 30
-270 -67 -245 -28 7 -62 72 -63 120 0 51 19 103 47 125 33 25 58 25 83 0z
m1502 -40 c63 -65 69 -86 37 -131 -27 -38 -68 -59 -118 -59 -32 0 -44 6 -66
32 -24 28 -27 39 -23 89 3 43 11 66 32 93 41 54 67 49 138 -24z"/>
<path d="M620 5502 c-92 -35 -220 -201 -220 -286 0 -46 24 -93 111 -221 217
-319 474 -545 657 -574 93 -15 125 -36 195 -133 16 -21 37 -42 48 -48 33 -18
37 3 69 378 13 159 38 222 75 192 8 -7 15 -27 15 -44 1 -85 14 -90 128 -50 94
32 118 27 176 -37 56 -62 90 -130 116 -233 35 -140 23 -248 -32 -277 -19 -10
-25 -8 -48 18 -27 29 -47 93 -71 218 l-11 60 -38 -82 c-50 -107 -83 -149 -142
-179 -26 -13 -48 -31 -48 -40 0 -27 44 -60 118 -88 98 -38 137 -84 239 -282
45 -88 96 -178 112 -201 66 -92 232 -136 428 -114 141 16 216 41 312 105 97
65 141 76 203 48 52 -23 108 -84 108 -117 0 -36 -41 -58 -123 -67 -90 -9 -135
-38 -171 -109 -52 -106 -25 -232 73 -330 117 -116 240 -141 353 -69 110 70
156 89 278 119 187 46 326 124 396 223 61 86 67 142 29 287 -14 52 -25 119
-25 148 0 70 29 103 150 168 101 54 167 110 172 147 3 20 8 23 48 23 l45 0 3
49 c2 27 -4 94 -12 148 -9 54 -16 106 -16 115 0 14 15 15 128 10 138 -6 193
-18 223 -48 24 -24 18 -38 -63 -132 -32 -37 -58 -72 -58 -77 0 -7 47 -10 123
-9 153 2 177 -9 295 -126 135 -135 108 -147 -113 -49 -160 71 -189 72 -379 20
-262 -73 -430 -157 -471 -236 -24 -47 18 -125 138 -255 l64 -70 179 44 c376
92 678 212 731 290 28 42 29 89 3 165 -65 190 -301 580 -412 682 -92 84 -206
140 -340 168 -143 29 -278 14 -389 -45 -111 -60 -169 -152 -169 -271 0 -97 39
-155 157 -235 46 -31 81 -58 79 -61 -3 -2 -100 -10 -218 -18 -261 -17 -489
-41 -557 -59 -28 -7 -53 -9 -56 -5 -9 14 51 66 109 93 31 15 103 40 159 56
134 38 148 44 191 81 54 48 71 141 45 259 -26 120 -99 181 -219 181 -142 0
-196 -56 -354 -366 -31 -61 -71 -128 -90 -150 -30 -34 -35 -37 -42 -20 -17 44
53 223 139 354 62 93 87 146 87 182 0 52 -41 38 -130 -46 -48 -45 -102 -66
-172 -65 -80 0 -148 21 -302 93 -131 61 -209 80 -271 64 -15 -4 -57 -35 -94
-70 -37 -34 -79 -71 -94 -81 -32 -21 -24 -25 -142 85 -122 115 -212 166 -419
237 -157 53 -397 168 -522 251 -117 77 -226 179 -254 238 -33 72 -63 94 -124
93 -28 0 -71 -8 -96 -17z m70 -102 c10 -5 42 -47 73 -92 70 -107 136 -167 275
-253 190 -117 312 -247 312 -333 0 -73 -71 -154 -147 -168 -74 -14 -256 102
-384 245 -142 159 -269 373 -269 453 0 38 28 107 58 141 17 19 53 22 82 7z
m1847 -795 c38 -14 97 -42 133 -62 112 -61 160 -112 160 -170 0 -38 -23 -57
-96 -79 -61 -18 -90 -37 -97 -64 -7 -29 34 -76 81 -91 80 -26 264 -137 365
-221 78 -65 59 -101 -42 -80 -138 29 -730 367 -862 491 -59 57 -52 76 31 76
36 0 84 -3 107 -6 68 -11 76 1 58 90 -22 105 -8 141 56 141 21 0 69 -11 106
-25z m-194 -574 c184 -95 337 -212 337 -256 0 -8 -12 -18 -26 -21 -81 -21
-247 46 -353 143 -68 61 -91 97 -91 141 0 56 14 55 133 -7z m1283 -197 c34
-16 94 -76 94 -94 0 -10 -14 -14 -82 -25 -21 -3 -50 -17 -65 -30 -26 -21 -28
-29 -27 -92 1 -55 10 -91 46 -188 25 -66 49 -134 52 -151 10 -47 -12 -64 -82
-64 -73 0 -147 34 -191 86 -43 52 -105 182 -130 274 -46 167 -20 222 128 266
47 14 91 27 96 29 31 10 131 3 161 -11z"/>
<path d="M4435 3365 c-161 -28 -428 -141 -506 -214 -72 -69 -60 -123 38 -168
90 -41 233 -58 377 -44 195 19 318 73 332 146 13 72 -25 212 -71 255 -33 31
-87 39 -170 25z"/>
<path d="M3250 2862 c0 -41 144 -278 259 -426 54 -69 143 -136 181 -136 81 0
319 268 424 477 20 40 36 82 36 94 0 20 -4 21 -41 16 -50 -7 -123 -50 -251
-151 l-101 -79 -228 116 c-125 64 -239 117 -253 117 -22 0 -26 -5 -26 -28z"/>
<path d="M2900 2733 c-23 -12 -43 -34 -58 -65 -36 -72 -64 -227 -66 -358 -1
-136 15 -178 74 -194 47 -13 199 -165 230 -229 20 -44 21 -50 7 -64 -32 -33
-117 32 -169 129 -74 138 -149 154 -258 52 -65 -61 -85 -122 -75 -227 11 -118
26 -130 177 -146 51 -5 107 -15 123 -21 28 -11 29 -12 11 -25 -10 -8 -41 -16
-70 -19 -230 -22 -246 -25 -297 -52 -53 -29 -103 -83 -133 -142 -30 -58 -48
-167 -36 -212 21 -77 213 -302 350 -410 30 -23 82 -55 115 -70 33 -15 66 -34
74 -43 17 -21 8 -47 -16 -47 -40 1 -248 136 -376 247 -129 110 -160 131 -217
147 -162 46 -469 -21 -677 -146 -73 -44 -193 -171 -226 -239 -30 -59 -67 -181
-67 -216 0 -12 10 -33 23 -48 42 -48 112 -55 603 -55 538 0 549 1 769 105 61
28 144 67 185 85 41 19 80 38 86 44 8 8 8 52 -2 166 -21 231 -21 418 0 523 26
133 98 329 244 658 72 163 148 338 168 388 35 89 36 94 21 124 -45 93 -246
286 -352 338 -80 39 -121 45 -165 22z"/>
<path d="M4432 2728 c-64 -10 -109 -32 -187 -92 -146 -114 -198 -220 -174
-361 26 -160 127 -421 294 -760 136 -277 144 -304 156 -535 10 -199 22 -282
44 -300 62 -51 431 221 504 373 27 56 26 92 -3 199 -56 203 -111 256 -301 294
-94 18 -156 41 -162 60 -4 13 41 24 101 24 126 0 216 72 216 172 0 49 -51 148
-98 190 -88 79 -165 57 -297 -87 -109 -119 -173 -152 -196 -101 -9 18 -7 32 7
62 23 50 178 203 229 228 22 10 51 24 65 30 14 7 30 27 37 46 15 44 16 174 3
260 -16 97 -67 254 -89 275 -27 24 -84 33 -149 23z"/>
<path d="M5205 956 c-96 -30 -205 -99 -371 -232 -113 -91 -184 -125 -284 -134
-121 -12 -133 -24 -77 -76 106 -100 315 -186 527 -218 185 -28 337 -36 688
-36 l342 0 0 140 c0 222 -15 262 -139 360 -183 147 -350 211 -545 209 -56 0
-119 -6 -141 -13z"/>
</g>
</svg>
